<?xml version="1.0" standalone="no"?>
<!DOCTYPE svg PUBLIC "-//W3C//DTD SVG 20010904//EN"
 "http://www.w3.org/TR/2001/REC-SVG-20010904/DTD/svg10.dtd">
<svg version="1.0" xmlns="http://www.w3.org/2000/svg"
 width="320.000000pt" height="320.000000pt" viewBox="0 0 320.000000 320.000000"
 preserveAspectRatio="xMidYMid meet">
<metadata>
Created by potrace 1.14, written by Peter Selinger 2001-2017
</metadata>
<g transform="translate(0.000000,320.000000) scale(0.100000,-0.100000)"
fill="#000000" stroke="none">
<path d="M1613 2678 c4 -13 2 -15 -10 -11 -11 4 -14 2 -9 -5 5 -9 1 -9 -18 -2
-21 8 -26 6 -31 -11 -4 -10 -11 -17 -16 -14 -5 4 -9 1 -9 -5 0 -6 -4 -9 -9 -5
-5 3 -13 0 -16 -6 -4 -5 -14 -8 -22 -5 -8 3 -11 1 -8 -4 3 -6 -1 -10 -10 -10
-8 0 -18 -6 -21 -14 -3 -8 -12 -12 -20 -9 -7 3 -17 -2 -20 -12 -4 -9 -13 -14
-21 -11 -7 3 -16 -1 -20 -10 -5 -13 -7 -13 -14 -2 -7 10 -9 9 -9 -3 0 -9 -7
-20 -16 -23 -9 -4 -13 -2 -8 5 4 8 0 7 -15 0 -11 -7 -21 -14 -21 -17 0 -3 5
-2 12 2 7 5 8 3 4 -5 -5 -7 -14 -10 -22 -7 -8 3 -14 1 -14 -5 0 -6 -7 -9 -15
-5 -8 3 -20 -3 -28 -14 -8 -11 -17 -17 -20 -13 -4 3 -7 1 -7 -6 0 -7 -4 -9
-10 -6 -5 3 -10 -1 -10 -10 0 -9 -4 -14 -9 -11 -11 7 -63 -19 -54 -27 6 -7
-15 -11 -45 -10 -7 1 -11 -1 -8 -4 10 -11 -25 -35 -44 -30 -12 3 -17 0 -14 -8
6 -14 -50 -40 -65 -30 -6 3 -9 0 -6 -7 3 -7 -4 -19 -16 -26 -14 -9 -19 -9 -14
-2 6 9 2 9 -13 1 -12 -6 -24 -17 -28 -24 -5 -7 0 -6 12 3 18 14 18 14 5 -2 -7
-10 -18 -15 -23 -12 -5 3 -15 -2 -23 -12 -7 -11 -22 -19 -32 -19 -10 0 -29
-10 -42 -22 -13 -12 -31 -20 -41 -18 -21 4 -35 -21 -17 -29 8 -3 8 -5 -2 -5
-11 -1 -11 -4 0 -18 12 -15 12 -16 -3 -10 -15 5 -16 3 -6 -18 8 -19 8 -28 -3
-42 -8 -9 -9 -14 -3 -10 7 4 15 0 18 -9 3 -8 2 -12 -4 -9 -14 9 -12 -8 3 -24
6 -8 7 -11 1 -8 -7 4 -11 -5 -12 -23 0 -17 5 -30 11 -30 7 0 6 -4 -3 -10 -8
-5 -11 -12 -8 -16 4 -4 3 -15 -3 -25 -6 -12 -6 -19 0 -19 5 0 12 6 14 13 4 9
6 9 6 0 1 -6 -3 -14 -9 -18 -5 -3 -6 -13 -3 -21 3 -9 0 -20 -8 -25 -8 -5 -9
-9 -3 -9 7 0 15 -7 18 -16 3 -8 2 -12 -4 -9 -14 9 -12 -8 3 -24 6 -8 7 -11 1
-8 -7 4 -11 -5 -12 -23 0 -17 5 -30 11 -30 7 0 6 -4 -3 -10 -8 -5 -11 -12 -8
-16 4 -4 3 -15 -3 -25 -6 -12 -6 -19 0 -19 5 0 12 6 14 13 4 9 6 9 6 0 1 -6
-3 -14 -9 -18 -5 -3 -6 -13 -3 -21 3 -9 0 -20 -8 -25 -8 -5 -9 -9 -3 -9 7 0
15 -7 18 -16 3 -8 2 -12 -4 -9 -14 9 -12 -8 3 -24 6 -8 7 -11 1 -8 -14 8 -17
-50 -3 -58 5 -4 9 -12 9 -18 0 -7 -4 -6 -10 3 -6 9 -10 10 -10 3 0 -6 4 -14
10 -18 5 -3 8 -11 6 -18 -1 -7 -1 -9 1 -6 6 10 43 -2 43 -13 0 -6 8 -7 17 -4
10 4 14 4 10 0 -4 -4 0 -16 9 -26 14 -15 20 -16 32 -5 13 10 15 9 9 -6 -4 -11
-3 -16 3 -12 6 3 13 -1 16 -9 7 -19 30 -21 38 -3 3 6 3 1 -1 -13 -5 -22 -4
-23 10 -12 13 11 18 10 32 -12 10 -14 21 -23 26 -20 5 3 9 1 9 -4 0 -6 6 -9
14 -8 8 0 15 -3 15 -8 -1 -14 25 -26 44 -20 10 3 17 2 16 -3 -3 -19 2 -30 14
-30 27 -1 42 -9 49 -26 4 -10 13 -15 19 -12 6 4 17 -2 25 -13 8 -12 21 -19 29
-16 8 4 15 1 15 -5 0 -6 7 -11 16 -11 9 0 12 -5 8 -12 -5 -7 -1 -9 13 -6 19 5
58 -15 58 -30 0 -4 3 -6 8 -4 4 1 7 -2 7 -7 0 -5 14 -14 30 -20 17 -5 30 -14
30 -20 0 -5 9 -8 20 -6 11 2 19 -1 17 -8 -1 -6 4 -12 11 -13 6 -1 17 -2 22 -3
6 0 10 -8 10 -17 0 -8 4 -13 9 -10 5 4 12 0 14 -6 4 -10 6 -10 6 0 1 7 12 1
27 -15 14 -15 28 -26 31 -24 10 7 42 -23 36 -33 -4 -6 0 -5 9 2 14 11 18 10
27 -7 7 -12 17 -18 26 -15 11 5 13 2 8 -12 -5 -14 -3 -16 11 -11 9 4 15 3 12
-2 -3 -5 1 -12 10 -15 8 -3 12 -10 9 -16 -3 -5 2 -10 12 -10 15 0 16 -2 3 -10
-13 -8 -12 -10 3 -10 14 0 17 -5 12 -20 -4 -13 -2 -20 7 -20 10 0 9 -3 -2 -10
-8 -5 -10 -10 -4 -10 7 0 11 -11 10 -24 0 -13 -4 -22 -8 -19 -5 2 -8 -1 -8 -6
0 -6 4 -11 9 -11 10 0 9 -25 -1 -36 -4 -3 -4 -13 -1 -22 4 -10 3 -14 -2 -10
-4 4 -16 3 -26 -2 -12 -7 -19 -6 -22 3 -4 8 -6 7 -6 -3 -1 -10 -6 -8 -17 8 -8
12 -24 22 -34 22 -10 0 -22 5 -26 11 -4 8 -9 7 -15 -2 -6 -10 -9 -7 -9 11 0
20 -2 22 -10 10 -6 -10 -10 -11 -10 -2 0 6 -12 12 -26 12 -23 0 -25 2 -14 15
11 13 10 14 -4 9 -9 -3 -16 -1 -16 5 0 6 -6 8 -14 5 -7 -3 -22 3 -32 13 -10
10 -25 18 -33 18 -9 1 -15 6 -14 12 1 6 -4 14 -13 17 -10 4 -13 2 -8 -7 4 -6
-1 -5 -12 4 -10 9 -24 14 -31 12 -7 -3 -11 3 -8 15 2 14 -2 18 -18 17 -29 -3
-48 5 -41 16 5 8 -9 13 -28 10 -5 0 -8 4 -8 11 0 6 -3 8 -7 5 -9 -9 -34 13
-27 24 3 5 -3 6 -12 2 -10 -4 -20 0 -26 11 -5 9 -13 14 -19 11 -5 -4 -9 -1 -9
5 0 6 -4 9 -9 5 -5 -3 -12 -1 -16 5 -4 6 -11 7 -17 4 -8 -5 -9 -1 -5 10 4 10
2 16 -6 15 -21 -4 -69 20 -62 31 4 6 3 10 -2 9 -24 -4 -43 2 -37 13 5 7 1 10
-12 6 -12 -3 -28 5 -44 20 -15 16 -17 20 -5 11 18 -13 19 -12 8 2 -7 9 -25 15
-42 14 -21 -1 -28 2 -24 12 3 8 -2 13 -16 13 -12 0 -21 5 -21 10 0 6 -7 10
-15 10 -8 0 -15 5 -15 10 0 6 -11 10 -25 10 -14 0 -25 5 -25 10 0 6 -5 10 -11
10 -5 0 -7 -6 -3 -13 5 -7 0 -6 -11 3 -17 14 -18 13 -12 -4 7 -17 6 -17 -10
-5 -11 9 -14 10 -9 2 4 -8 2 -13 -6 -13 -9 0 -9 -3 2 -10 8 -5 10 -10 5 -10
-18 0 -6 -113 13 -130 15 -14 15 -13 2 5 -13 19 -13 19 6 2 15 -14 16 -19 5
-26 -11 -7 -9 -10 8 -16 11 -3 21 -10 21 -15 0 -4 9 -10 21 -13 12 -3 18 -10
15 -16 -4 -5 -1 -13 5 -17 8 -4 9 -3 5 4 -4 7 -1 12 9 12 9 0 14 -4 11 -9 -3
-5 8 -14 24 -20 17 -5 30 -13 30 -16 0 -3 -4 -3 -10 0 -16 10 -11 -1 7 -16 11
-10 14 -10 9 -1 -4 6 -2 12 3 12 6 0 11 -5 11 -11 0 -5 5 -7 10 -4 6 3 10 1
10 -5 0 -6 4 -9 9 -6 5 3 12 -4 16 -17 4 -14 8 -17 12 -9 4 10 9 9 20 -5 8
-10 12 -12 8 -5 -3 6 -1 12 4 12 6 0 11 -6 11 -14 0 -7 8 -20 17 -27 11 -10
14 -10 9 -1 -4 6 -2 12 3 12 6 0 11 -5 11 -11 0 -5 5 -7 10 -4 6 3 10 2 10 -3
0 -5 13 -15 30 -22 16 -7 28 -15 26 -19 -3 -4 5 -8 17 -8 12 -1 30 -12 41 -25
10 -13 20 -22 22 -20 13 8 36 -1 42 -15 4 -10 18 -18 32 -18 19 -1 25 -6 24
-23 0 -18 2 -20 14 -9 12 9 16 9 19 -1 3 -6 10 -9 16 -5 6 4 8 0 4 -10 -4 -12
-2 -14 10 -10 11 4 14 2 9 -5 -5 -8 -2 -10 9 -6 9 4 23 -2 35 -16 10 -12 23
-19 29 -16 5 4 13 1 17 -5 4 -8 3 -9 -4 -5 -7 4 -12 5 -12 2 0 -3 16 -12 35
-21 20 -8 43 -21 51 -30 9 -8 20 -12 26 -9 7 4 8 2 4 -4 -4 -7 -1 -12 9 -12 9
0 14 -4 10 -9 -3 -6 3 -8 14 -6 11 2 26 -4 33 -13 12 -16 11 -16 -7 -2 -16 11
-17 11 -8 0 12 -13 20 -16 73 -25 14 -2 27 -4 30 -5 3 -2 9 -2 13 -1 5 1 6 -3
3 -8 -3 -5 1 -11 9 -14 10 -4 12 -1 8 11 -6 15 -5 15 11 3 14 -12 17 -12 14
-1 -2 9 6 14 22 15 15 0 26 7 28 18 2 9 8 15 13 12 5 -4 9 -1 9 5 0 6 4 9 9 6
5 -3 12 6 15 19 4 14 10 23 15 20 5 -2 12 2 15 11 9 22 8 26 -5 19 -6 -4 -5 2
3 14 7 12 17 21 23 21 5 0 3 5 -5 10 -10 6 -11 10 -2 10 6 0 12 9 12 21 0 13
4 18 13 13 9 -6 9 -5 0 7 -6 8 -10 41 -9 77 1 38 -2 62 -8 62 -6 0 -4 5 4 10
8 5 11 10 7 10 -4 0 -3 8 2 19 6 10 7 21 4 25 -14 14 -11 36 5 37 11 0 12 2 5
6 -22 8 -15 19 22 33 19 7 32 17 29 22 -3 4 4 8 15 8 12 0 30 9 40 19 11 11
21 17 24 15 2 -2 12 5 22 16 10 11 28 20 40 20 13 0 26 7 29 16 3 8 10 12 16
9 5 -3 10 -2 10 4 0 6 6 8 13 5 8 -3 22 6 32 20 16 21 22 23 39 14 19 -10 20
-10 7 6 -12 14 -12 16 4 10 14 -6 16 -4 10 6 -6 10 -3 12 13 8 12 -4 20 -3 18
0 -2 4 6 16 17 27 11 11 17 14 13 8 -4 -7 -2 -13 3 -13 6 0 11 5 11 10 0 6 6
9 13 8 6 -2 11 3 9 10 -1 8 2 11 7 8 5 -4 13 -1 17 5 4 8 9 7 15 -2 7 -11 9
-10 9 5 0 13 5 16 16 12 15 -6 15 -4 3 11 -8 9 -9 14 -3 10 14 -8 77 16 67 26
-3 4 3 7 15 7 12 0 22 4 22 10 0 5 7 6 17 3 11 -4 14 -3 9 5 -4 7 -2 12 4 12
6 0 9 4 6 9 -4 5 3 7 14 4 12 -3 20 0 20 8 0 7 3 9 7 6 3 -4 12 1 19 11 9 11
13 13 14 4 0 -10 5 -8 18 4 15 16 17 42 18 243 0 147 -3 231 -10 240 -8 11 -8
13 1 8 14 -9 13 69 -2 92 -5 10 -4 12 3 7 8 -5 10 8 7 45 -3 33 0 58 8 68 8 9
8 12 1 8 -7 -4 -14 2 -17 13 -3 11 -2 18 2 15 10 -5 8 41 -2 51 -3 4 -4 -3 -2
-15 2 -12 0 -19 -4 -17 -10 6 -8 46 2 63 6 9 3 11 -8 7 -11 -5 -14 -2 -9 11 4
10 1 21 -7 26 -12 7 -12 9 0 9 17 0 -23 37 -50 45 -11 4 -19 12 -19 19 0 9 -9
12 -26 8 -21 -4 -25 -2 -20 9 4 8 1 6 -8 -5 -8 -10 -19 -15 -25 -12 -5 4 -13
1 -17 -5 -5 -8 -3 -9 7 -4 8 5 11 4 6 -1 -5 -5 -22 -10 -38 -10 -42 -2 -45 -3
-31 -13 10 -6 9 -10 -7 -14 -14 -3 -19 -1 -15 6 3 7 -1 4 -9 -5 -9 -12 -17
-14 -24 -7 -8 8 -13 7 -18 -2 -6 -8 -4 -10 5 -4 9 6 11 4 6 -4 -5 -7 -14 -10
-22 -7 -8 3 -13 0 -11 -6 1 -7 -4 -13 -10 -14 -7 -1 -18 -2 -24 -3 -5 0 -7 -6
-3 -13 5 -8 2 -9 -9 -5 -10 4 -17 2 -17 -4 0 -6 -6 -9 -14 -6 -17 7 -39 -16
-28 -28 4 -5 1 -5 -5 -1 -8 4 -13 2 -13 -6 0 -9 -3 -9 -10 2 -7 12 -10 12 -10
1 0 -7 -6 -11 -14 -8 -8 3 -16 -2 -19 -14 -3 -13 -11 -17 -21 -13 -9 3 -16 1
-16 -6 0 -6 -4 -8 -10 -5 -5 3 -10 -1 -10 -10 0 -9 -4 -13 -10 -10 -5 3 -10 2
-10 -4 0 -5 -9 -8 -20 -6 -13 2 -20 -2 -20 -11 0 -12 -19 -19 -43 -15 -5 1 -5
-4 -1 -10 5 -9 2 -10 -9 -6 -11 4 -14 2 -10 -9 4 -10 0 -12 -11 -8 -9 3 -16 1
-16 -6 0 -6 -4 -8 -10 -5 -5 3 -10 1 -10 -6 0 -7 -3 -9 -7 -6 -3 4 -12 -1 -20
-11 -9 -10 -11 -11 -7 -2 7 13 6 13 -12 0 -10 -8 -22 -20 -27 -27 -4 -7 -15
-9 -24 -6 -11 4 -14 3 -9 -5 5 -8 1 -10 -10 -5 -13 5 -16 3 -11 -10 4 -12 2
-14 -10 -10 -10 4 -14 2 -10 -4 4 -7 0 -10 -10 -8 -10 1 -26 -7 -36 -19 -10
-11 -16 -16 -13 -9 5 8 0 8 -18 0 -13 -7 -22 -16 -19 -21 4 -5 -3 -7 -15 -4
-12 4 -20 3 -18 0 2 -4 -6 -16 -17 -27 -11 -11 -16 -13 -12 -5 8 13 6 13 -8 2
-9 -8 -21 -11 -27 -7 -5 3 -10 1 -10 -5 0 -6 -5 -8 -12 -3 -7 4 -23 6 -35 5
-12 -2 -32 6 -44 17 -17 16 -26 18 -36 10 -12 -11 -17 -5 -14 14 1 5 -8 11
-19 14 -11 3 -20 10 -20 15 0 5 -4 6 -10 3 -5 -3 -10 2 -10 12 0 15 -2 16 -10
3 -8 -13 -10 -12 -10 4 0 11 -5 16 -14 13 -9 -4 -13 0 -11 11 2 9 4 21 4 25 1
5 5 6 10 3 5 -3 11 4 14 16 5 17 9 19 20 9 12 -9 16 -8 21 4 4 11 2 14 -6 9
-7 -4 -8 -3 -4 4 4 7 18 12 32 12 15 0 24 6 24 16 0 8 5 12 10 9 6 -3 10 -1
10 5 0 7 7 9 16 6 11 -4 15 -2 11 8 -4 10 -1 13 9 9 7 -3 14 0 14 7 0 7 7 10
16 6 8 -3 12 -2 9 4 -3 6 3 10 15 10 12 0 19 4 16 9 -9 14 20 21 33 8 7 -7 12
-7 11 -2 -5 22 1 35 13 33 6 -2 11 3 9 10 -1 8 2 11 9 6 6 -3 15 0 20 7 7 12
9 12 9 0 0 -9 7 -6 20 9 13 15 20 18 21 9 0 -8 5 -4 11 9 7 13 17 21 25 18 7
-3 13 -1 13 5 0 6 4 8 8 5 5 -3 14 3 22 14 7 10 19 16 27 13 7 -3 13 0 13 7 0
6 4 8 10 5 5 -3 15 3 22 15 14 21 44 29 33 8 -4 -7 5 -1 18 14 14 15 28 24 31
21 3 -4 6 -1 6 6 0 7 4 10 9 7 5 -3 12 1 15 10 5 12 14 14 34 10 19 -5 23 -4
12 3 -12 8 -9 12 12 20 14 5 28 16 31 23 4 10 6 10 6 0 1 -10 4 -10 15 0 8 7
11 17 8 22 -3 5 5 7 16 4 15 -4 22 -2 22 7 0 8 5 17 12 21 7 4 8 3 4 -4 -4 -7
9 -3 29 9 27 16 34 26 30 40 -5 15 -3 17 12 12 15 -6 16 -5 3 9 -8 9 -19 14
-23 11 -11 -6 -38 17 -32 28 3 4 -4 6 -15 4 -11 -2 -20 2 -20 8 0 7 -4 6 -10
-3 -7 -11 -10 -12 -10 -2 0 8 -6 12 -12 9 -7 -2 -26 0 -41 4 -24 7 -27 6 -17
-5 8 -11 7 -14 -7 -12 -10 0 -21 6 -25 11 -4 6 -8 2 -8 -8 0 -10 -4 -15 -10
-12 -5 3 -10 0 -10 -8 0 -11 -7 -13 -22 -9 -14 3 -19 2 -14 -6 4 -7 1 -12 -9
-12 -10 0 -13 -5 -9 -12 4 -6 3 -8 -4 -4 -6 3 -13 2 -17 -4 -4 -6 -11 -8 -16
-5 -5 4 -9 1 -9 -4 0 -6 -5 -11 -11 -11 -5 0 -7 6 -3 13 4 7 3 9 -2 4 -5 -5
-9 -14 -9 -20 0 -7 -8 -11 -18 -11 -9 1 -17 -4 -17 -11 0 -14 -45 -29 -60 -20
-5 3 -7 -4 -5 -15 2 -11 0 -18 -6 -15 -5 4 -9 1 -9 -5 0 -8 -6 -8 -20 0 -11 6
-20 7 -19 3 3 -18 -2 -33 -11 -33 -5 0 -7 8 -4 18 3 9 -2 5 -10 -10 -10 -16
-22 -25 -30 -22 -8 3 -24 -4 -35 -15 -12 -12 -25 -21 -31 -21 -5 0 -10 -5 -10
-11 0 -5 -4 -7 -10 -4 -5 3 -10 1 -10 -5 0 -6 -4 -8 -10 -5 -5 3 -10 1 -10 -6
0 -8 -4 -8 -15 1 -13 11 -14 10 -9 -4 4 -10 1 -17 -7 -18 -8 0 -21 -2 -29 -2
-8 -1 -14 -8 -12 -15 1 -7 -2 -10 -8 -6 -5 3 -13 -1 -16 -10 -6 -13 -8 -14
-15 -3 -7 10 -9 10 -9 1 0 -7 -7 -13 -16 -13 -10 0 -14 -5 -10 -15 4 -11 0
-15 -12 -13 -9 2 -20 7 -23 12 -4 5 -10 -1 -13 -12 -4 -11 -14 -23 -23 -26
-12 -5 -13 -3 -7 7 5 7 2 5 -7 -5 -9 -9 -19 -14 -23 -11 -3 4 -6 1 -6 -6 0 -8
-7 -11 -15 -7 -8 3 -14 2 -14 -2 3 -19 -2 -23 -15 -13 -12 10 -18 7 -32 -14
-9 -14 -23 -24 -30 -21 -7 3 -16 1 -20 -5 -4 -7 -10 -6 -18 0 -7 6 -16 8 -20
4 -10 -10 -75 -10 -69 0 2 4 -1 7 -7 7 -6 0 -8 5 -5 10 3 6 -1 10 -10 10 -10
0 -13 -5 -9 -12 4 -7 3 -8 -5 -4 -9 6 -9 11 -1 21 9 11 7 12 -11 8 -15 -4 -20
-2 -15 5 3 6 -2 16 -13 22 -13 7 -18 16 -14 27 4 10 2 14 -5 9 -7 -4 -8 2 -2
23 4 16 5 32 2 36 -4 4 -2 6 3 4 18 -4 45 13 46 30 0 11 2 12 6 3 4 -10 8 -10
19 -1 8 6 14 8 14 3 0 -5 7 1 15 13 9 12 21 20 28 18 6 -3 25 6 41 20 31 26
41 32 31 15 -11 -17 1 -11 30 16 17 15 35 24 46 21 11 -3 17 -1 13 4 -3 5 0 9
6 9 6 0 8 4 5 10 -3 6 1 7 9 4 9 -4 16 -1 16 6 0 7 8 10 19 7 15 -3 18 -1 14
11 -4 10 -2 13 5 8 7 -4 12 -2 12 4 0 6 5 8 11 5 12 -8 51 24 44 35 -2 4 7 5
22 2 14 -3 24 -1 21 4 -3 5 5 17 18 27 22 16 23 16 17 1 -4 -12 -3 -15 5 -10
7 4 12 14 12 22 0 9 6 14 13 11 6 -2 18 3 25 12 11 13 12 13 7 1 -4 -10 -2 -9
8 2 8 10 17 15 20 11 4 -3 7 -2 7 4 0 6 9 13 20 16 11 3 19 11 18 18 -2 9 8
13 29 13 17 0 31 5 30 10 -1 6 14 16 33 22 19 7 29 13 22 13 -7 1 -11 5 -7 10
3 6 14 8 25 6 12 -2 18 0 15 6 -4 5 1 12 9 15 9 3 13 11 10 16 -4 6 3 8 17 4
13 -3 18 -3 11 0 -10 5 -10 9 0 22 7 9 9 13 3 10 -9 -6 -33 13 -38 29 -1 5 -5
7 -9 6 -5 -2 -8 2 -8 9 0 9 -3 9 -12 0 -10 -10 -15 -7 -26 10 -11 19 -12 20
-8 3 6 -19 5 -19 -8 -2 -15 19 -31 23 -20 5 5 -8 0 -7 -11 2 -17 14 -18 13
-12 -2z m-390 -213 c-3 -9 -8 -14 -10 -11 -3 3 -2 9 2 15 9 16 15 13 8 -4z
m-23 -495 c0 -5 -5 -10 -11 -10 -5 0 -7 5 -4 10 3 6 8 10 11 10 2 0 4 -4 4
-10z m1250 -50 c1 12 3 11 11 -3 6 -9 14 -15 18 -13 4 3 8 -4 8 -15 1 -11 -3
-17 -9 -13 -6 4 -5 -3 2 -16 10 -18 9 -24 -1 -31 -8 -5 -9 -9 -3 -9 12 0 12
-69 -1 -89 -5 -9 -4 -12 2 -8 6 4 10 -8 10 -28 0 -19 -4 -35 -9 -35 -5 0 -6
-5 -2 -12 10 -16 13 -68 4 -68 -8 0 -6 -37 3 -46 4 -4 2 -13 -4 -20 -7 -8 -7
-14 1 -19 8 -5 5 -12 -7 -21 -12 -10 -13 -12 -3 -9 12 4 16 -2 15 -30 0 -23
-4 -34 -12 -31 -17 7 -26 -11 -12 -20 8 -4 9 -3 5 4 -4 7 -5 12 -2 12 14 0 14
-19 -1 -31 -14 -12 -16 -12 -8 1 5 8 -4 3 -20 -12 -15 -16 -32 -28 -38 -28 -5
0 -16 -8 -23 -17 -13 -17 -14 -17 -8 2 4 15 1 13 -10 -5 -8 -14 -15 -21 -16
-17 0 4 -9 3 -20 -3 -11 -6 -17 -16 -14 -22 5 -7 1 -9 -9 -5 -10 4 -17 1 -17
-6 0 -8 -4 -6 -10 3 -7 11 -10 11 -10 2 0 -7 -5 -10 -10 -7 -6 4 -10 3 -9 -2
4 -22 -3 -29 -28 -29 -16 1 -28 -4 -28 -12 0 -17 -25 -31 -43 -24 -9 3 -13 1
-9 -4 3 -6 -3 -16 -15 -23 -16 -10 -19 -10 -12 1 6 10 5 11 -8 1 -8 -7 -19 -9
-23 -5 -5 4 -5 1 -1 -5 4 -7 2 -13 -4 -13 -6 0 -8 -4 -5 -10 4 -6 -1 -7 -11
-3 -13 5 -15 3 -9 -8 8 -12 6 -12 -8 0 -14 11 -18 11 -23 -3 -3 -9 -13 -16
-21 -16 -8 0 -12 -4 -9 -9 3 -4 -8 -7 -25 -5 -16 2 -28 0 -25 -4 2 -4 -7 -13
-22 -20 -19 -9 -23 -9 -14 0 19 19 14 30 -10 24 -13 -3 -17 -3 -10 0 6 3 9 11
5 17 -13 21 -14 49 -1 41 8 -5 8 -3 2 7 -13 21 -13 249 0 249 8 0 7 3 0 8 -15
9 -14 152 1 152 5 0 3 5 -5 10 -13 8 -13 11 -1 19 8 5 11 16 8 24 -4 11 -1 15
13 12 12 -2 17 1 14 10 -3 7 0 16 7 21 8 5 10 3 4 -7 -8 -12 -6 -12 8 0 9 7
14 18 10 24 -4 6 -1 7 7 2 8 -5 18 -1 26 10 7 10 20 15 28 12 9 -4 15 -1 13 6
-1 7 4 11 11 9 6 -1 11 3 10 10 -2 8 8 12 25 12 21 -1 25 2 17 11 -13 16 -3
23 28 20 12 -1 22 4 22 11 0 8 6 11 17 7 10 -4 14 -2 10 4 -4 6 1 14 10 17 9
4 20 1 25 -6 6 -10 8 -10 9 2 1 8 1 19 0 23 -1 5 3 6 9 2 5 -3 10 -1 10 5 0 6
4 9 9 5 5 -3 13 -1 16 5 5 8 11 7 21 -1 12 -10 13 -9 9 4 -4 8 -1 18 6 23 8 5
10 3 5 -7 -4 -8 -1 -6 7 3 8 10 17 15 20 12 3 -4 19 3 35 15 16 11 32 17 36
13 4 -3 11 0 16 8 7 10 10 11 10 3 0 -7 5 -13 10 -13 6 0 9 3 9 8 -3 19 2 25
11 12 9 -13 10 -13 10 0z m-1524 -153 c10 4 17 -2 21 -16 3 -11 9 -18 14 -16
4 3 12 -3 18 -12 8 -13 10 -14 11 -4 0 11 4 9 14 -5 8 -10 19 -20 25 -20 6 -1
16 -2 22 -3 5 0 8 -5 5 -10 -7 -11 12 -19 41 -16 12 1 22 -1 21 -4 -2 -22 5
-29 27 -26 22 2 23 0 13 -14 -7 -9 -8 -13 -3 -8 4 4 17 -1 28 -10 15 -13 19
-14 13 -3 -4 8 0 6 8 -4 9 -11 16 -17 16 -13 0 5 6 2 14 -5 8 -7 11 -17 8 -23
-3 -5 2 -4 11 3 18 15 37 8 37 -14 0 -8 5 -12 10 -9 6 3 10 2 10 -3 0 -6 7
-13 16 -16 12 -5 14 -3 8 7 -5 7 -2 5 7 -5 9 -9 19 -14 23 -11 3 4 6 2 6 -4 0
-6 10 -13 23 -17 18 -5 20 -8 7 -16 -11 -8 -7 -9 17 -5 25 4 33 1 38 -15 3
-11 14 -20 24 -20 10 0 24 -7 31 -15 7 -8 16 -12 21 -10 4 3 11 -1 16 -8 4 -7
23 -23 41 -36 17 -12 32 -30 32 -39 0 -15 2 -15 10 -2 8 13 10 12 10 -3 0 -10
6 -20 14 -23 8 -3 17 -12 20 -20 3 -8 2 -13 -2 -10 -4 2 -7 -43 -7 -101 l0
-106 -27 -3 c-16 -1 -28 2 -28 7 0 5 -7 9 -16 9 -10 0 -14 6 -10 15 3 8 1 15
-3 15 -5 0 -11 -5 -13 -11 -2 -6 -15 0 -29 14 -15 13 -36 23 -48 22 -11 -1
-21 4 -21 10 0 19 -45 36 -60 22 -10 -10 -10 -7 0 12 9 17 9 22 0 16 -6 -4
-23 3 -38 16 -20 18 -23 19 -12 4 13 -17 12 -17 -14 3 -15 12 -32 19 -36 17
-5 -3 -12 0 -16 6 -5 8 -2 10 7 5 8 -4 6 -1 -3 7 -10 8 -14 18 -10 22 4 4 -3
3 -14 -3 -17 -9 -25 -8 -38 7 -9 10 -13 20 -10 24 4 4 -3 4 -15 2 -12 -2 -19
0 -16 6 4 5 -1 9 -10 9 -9 0 -13 5 -10 10 3 6 -5 10 -19 10 -14 0 -31 9 -39
20 -8 11 -17 17 -20 13 -4 -3 -7 1 -7 10 0 10 -8 17 -20 17 -11 0 -20 5 -20
11 0 5 -4 7 -10 4 -5 -3 -10 1 -10 9 0 8 -5 18 -12 22 -7 4 -8 3 -4 -4 5 -8 2
-10 -8 -6 -9 3 -16 13 -16 21 0 10 -6 13 -16 9 -8 -3 -13 -2 -10 3 6 8 -30 25
-47 22 -5 -1 -6 3 -2 9 5 8 12 7 23 -2 15 -12 16 -11 3 4 -7 10 -17 15 -22 13
-9 -6 -35 35 -31 49 2 5 -4 6 -12 3 -9 -4 -15 -1 -13 6 1 7 -2 11 -8 10 -5 -1
-10 12 -10 28 0 16 4 29 10 29 5 0 4 5 -2 11 -7 7 -8 21 -3 38 4 16 3 35 -2
46 -8 12 -7 16 0 11 6 -4 16 3 22 14 6 11 15 18 21 15 5 -4 9 0 10 7 0 9 2 10
5 1 3 -7 12 -9 20 -6z"/>
<path d="M1246 1277 c3 -10 9 -15 12 -12 3 3 0 11 -7 18 -10 9 -11 8 -5 -6z"/>
<path d="M786 2228 c3 -5 10 -6 15 -3 13 9 11 12 -6 12 -8 0 -12 -4 -9 -9z"/>
<path d="M2050 895 c-7 -9 -11 -17 -9 -20 3 -2 10 5 17 15 14 24 10 26 -8 5z"/>
</g>
</svg>
